<svg width="573" height="432" viewBox="0 0 573 432" fill="none" xmlns="http://www.w3.org/2000/svg">
<path d="M37.0874 250.964L300.539 403.099C304.493 405.376 308.981 406.562 313.543 406.537C318.106 406.512 322.581 405.276 326.51 402.956L535.97 278.849C536.965 278.259 537.789 277.42 538.361 276.415C538.933 275.41 539.234 274.274 539.234 273.117C539.234 271.96 538.933 270.824 538.361 269.819C537.789 268.814 536.965 267.975 535.97 267.385C489.399 240.546 293.204 127.444 261.288 109.346C259.968 108.584 258.471 108.183 256.948 108.183C255.424 108.183 253.927 108.584 252.607 109.346L37.0301 235.932C35.7154 236.7 34.6257 237.8 33.8702 239.122C33.1148 240.444 32.7201 241.942 32.726 243.464C32.7318 244.987 33.1378 246.482 33.9033 247.798C34.6688 249.114 35.7669 250.206 37.0874 250.964V250.964Z" fill="#DAF2E9"/>
<path d="M298.06 337.241L244.499 368.766C244.499 368.766 252.177 374.698 282.861 392.925L295.568 400.262L344.273 361.071" fill="url(#paint0_linear_15_14)"/>
<path d="M434.449 257.813L359.042 303.123C359.042 303.123 381.647 316.019 412.331 334.304L448.143 304.527L477.166 278.161" fill="url(#paint1_linear_15_14)"/>
<path d="M117.909 219.539L50.997 256.896C50.997 256.896 167.03 325.462 197.671 343.704L266.646 300.715" fill="url(#paint2_linear_15_14)"/>
<path d="M193.96 15.3882L216.379 27.3533L155.154 85.0292L101.163 101.995L83.1996 77.6065" fill="#FFE8BC"/>
<path d="M109.429 89.7149L88.6144 77.8645L193.96 15.3883L191.482 13.9553L83.1996 77.6066V240.159L106.822 253.6L115.832 244.2" fill="#68E1FD"/>
<path opacity="0.42" d="M109.429 89.7149L88.6144 77.8645L193.96 15.3883L191.482 13.9553L83.1996 77.6066V240.159L106.822 253.6L115.832 244.2" fill="#1371A5"/>
<path d="M216.379 27.3533L106.822 91.2481V253.6L218.112 187.069L216.379 27.3533Z" fill="#68E1FD"/>
<path d="M110.961 80.587L117.651 84.8285V119.448L121.891 114.003L124.871 117.371V80.716L118.625 76.2166L110.961 80.587Z" fill="#E85858"/>
<path d="M122.164 254.933C121.634 254.933 116.906 253.041 120.889 249.989C123.53 247.935 126.296 246.045 129.169 244.329" fill="#E27825"/>
<path d="M122.164 229.842C122.164 229.842 126.146 244.587 122.164 252.454L176.298 284.294L229.845 315.289V292.362" fill="#FFE8BC"/>
<path d="M120.33 227.55C120.454 228.572 120.583 229.594 120.717 230.616L229.802 292.376V315.303L120.831 251.68C120.831 252.583 120.831 253.486 120.831 254.403L234.07 319.96V288.722L120.33 227.55Z" fill="#E27825"/>
<path d="M120.96 227.951L233.469 292.433L391.33 199.722L281.243 136.515C279.577 135.559 277.688 135.062 275.768 135.075C273.848 135.087 271.966 135.609 270.313 136.586L120.946 225.142C120.703 225.288 120.503 225.495 120.364 225.742C120.225 225.989 120.153 226.267 120.154 226.551C120.156 226.834 120.231 227.112 120.372 227.357C120.513 227.603 120.716 227.807 120.96 227.951V227.951Z" fill="#FDBA45"/>
<path d="M234.042 319.945C234.042 319.945 391.803 227.005 391.33 226.561C390.858 226.117 391.33 199.664 391.33 199.664L233.497 292.376L234.042 319.945Z" fill="#E27825"/>
<path d="M120.946 225.142C120.484 225.475 120.098 225.903 119.813 226.398C119.529 226.892 119.354 227.441 119.299 228.008C119.112 229.928 121.161 230.874 121.877 231.261" fill="#FDBA45"/>
<path d="M442.743 361.429C442.722 361.305 442.658 361.193 442.563 361.112C442.467 361.03 442.345 360.986 442.22 360.986C442.094 360.986 441.973 361.03 441.877 361.112C441.781 361.193 441.718 361.305 441.697 361.429" fill="#7A9F36"/>
<path d="M414.035 247.797L443.287 263.201L444.161 270.423L413.205 252.955" fill="#E27623"/>
<path d="M412.847 236.061L400.799 279.522L403.005 280.798C403.578 280.498 404.128 280.158 404.653 279.78C405.297 279.279 420.281 234.098 420.281 234.098" fill="#E27623"/>
<path d="M440.637 227.521L448.86 253.185L448.158 304.527L446.31 305.745L443.76 304.155L441.869 253.156L434.449 227.521" fill="#E27623"/>
<path d="M408.348 224.44C408.348 224.44 407.432 230.172 409.394 233.281C411.357 236.391 416.557 228.581 416.557 228.581" fill="#FFB469"/>
<path d="M435.609 193.417L434.449 214.209L439.892 217.032L440.909 194.749" fill="#CA6B00"/>
<path d="M469.817 208.721L473.484 236.821L477.18 278.161L474.802 279.58L472.438 278.089L467.167 237.465L463.629 208.721" fill="#E27623"/>
<path d="M466.121 212.231C467.654 212.704 470.949 210.283 471.937 208.721C477.338 200.223 475.776 188.66 466.064 183.315C461.766 180.936 457.311 178.557 453.028 176.15C449.218 173.972 445.192 172.123 441.568 169.759C441.088 169.425 440.574 169.142 440.035 168.914C439.03 168.644 437.967 168.68 436.983 169.017C435.998 169.354 435.136 169.976 434.506 170.805" fill="#FFB469"/>
<path d="M466.522 211.859C469.129 211.773 470.619 208.319 471.378 206.285C473.484 200.711 473.9 190.107 467.554 186.926C467.434 186.872 467.33 186.789 467.252 186.683C467.175 186.578 467.125 186.454 467.11 186.324L454.919 179.288L445.493 173.843C443.846 172.897 442.284 171.808 440.637 170.848C438.99 169.888 437.371 168.785 435.552 169.874C433.732 170.963 433.288 173.327 432.973 175.433C432.152 180.292 432.406 185.271 433.718 190.021C434.855 193.04 437.091 195.518 439.978 196.956L448.731 202.029L464.961 211.4C465.224 211.567 465.508 211.697 465.806 211.787C466.04 211.847 466.281 211.871 466.522 211.859V211.859Z" fill="#FCBD4C"/>
<path d="M468.299 234.37L468.8 234.657C470.174 235.333 471.408 236.261 472.438 237.394C474.902 240.489 472.524 244.014 470.075 246.178C463.471 252.053 453.458 256.853 444.505 254.689C436.753 252.602 429.364 249.351 422.587 245.046C416.986 241.678 409.981 237.609 408.52 230.716C408.264 229.175 408.372 227.594 408.834 226.102C409.297 224.609 410.102 223.245 411.185 222.119C425.238 205.826 445.02 221.116 458.916 229.097L468.299 234.37Z" fill="#FFB469"/>
<path d="M473.169 235.001C473.584 236.959 473.681 238.972 473.456 240.962C472.531 243.134 471.16 245.087 469.43 246.694C467.797 248.012 468.771 238.812 468.771 238.812" fill="#FFB469"/>
<path d="M468.299 230.458L468.8 230.745C470.174 231.421 471.408 232.349 472.438 233.482C474.902 236.577 472.524 240.102 470.075 242.266C463.471 248.141 453.458 252.941 444.505 250.777C436.753 248.69 429.364 245.439 422.587 241.134C416.986 237.766 409.981 233.697 408.52 226.804C408.264 225.263 408.372 223.682 408.834 222.19C409.297 220.697 410.102 219.333 411.185 218.207C425.238 201.914 445.02 217.204 458.916 225.185L468.299 230.458Z" fill="#FCBD4C"/>
<path d="M110.904 211.028C110.374 211.028 105.647 209.136 109.629 206.084C112.271 204.03 115.036 202.14 117.909 200.424" fill="#9A433A"/>
<path d="M110.904 185.908C110.904 185.908 114.886 200.653 110.904 208.52L165.038 240.36L218.585 271.355V248.428" fill="#FFE8BC"/>
<path d="M109.114 183.644C109.238 184.666 109.367 185.688 109.5 186.711L218.585 248.47V271.397L109.586 207.761C109.586 208.663 109.586 209.566 109.586 210.483L222.825 276.04V244.816L109.114 183.644Z" fill="#9A433A"/>
<path d="M109.715 184.045L222.224 248.528L380.085 155.816L269.998 92.6094C268.332 91.6536 266.443 91.1567 264.523 91.1692C262.603 91.1818 260.72 91.7035 259.068 92.6811L109.701 181.222C109.455 181.368 109.251 181.575 109.11 181.823C108.969 182.071 108.896 182.352 108.897 182.638C108.899 182.924 108.975 183.204 109.118 183.451C109.262 183.698 109.468 183.903 109.715 184.045Z" fill="#F26250"/>
<path d="M222.797 276.04C222.797 276.04 380.558 183.042 380.085 182.655C379.613 182.269 380.085 155.759 380.085 155.759L222.224 248.47L222.797 276.04Z" fill="#9A433A"/>
<path d="M109.701 181.223C109.238 181.556 108.852 181.984 108.568 182.478C108.284 182.972 108.109 183.521 108.053 184.088C107.867 186.009 109.916 186.954 110.632 187.341" fill="#F26250"/>
<path d="M203.601 251.107L202.455 271.899L208.028 267.299L212.282 277.917L214.001 256.567L203.601 251.107Z" fill="#2AE400"/>
<path d="M306.827 345.223C305.863 345.219 304.902 345.109 303.962 344.893C300.589 344.14 297.512 342.409 295.117 339.917C292.722 337.424 291.115 334.28 290.497 330.879C290.253 328.615 290.31 322.152 290.396 317.123C290.408 316.37 290.612 315.633 290.988 314.981C291.364 314.329 291.9 313.784 292.545 313.397C293.19 313.009 293.923 312.793 294.675 312.768C295.427 312.743 296.173 312.91 296.843 313.254V313.254L319.247 325.821L318.889 327.254C318.889 327.254 318.588 328.543 317.843 332.985C317.37 335.851 316.024 340.867 312.113 343.489C310.564 344.582 308.723 345.185 306.827 345.223V345.223ZM294.88 316.707C294.789 316.706 294.7 316.731 294.622 316.779C294.548 316.82 294.486 316.88 294.444 316.953C294.401 317.026 294.378 317.11 294.379 317.194C294.25 324.13 294.278 328.844 294.45 330.449C294.978 333.029 296.241 335.402 298.086 337.281C299.932 339.16 302.281 340.465 304.85 341.038C305.716 341.292 306.626 341.359 307.52 341.236C308.414 341.112 309.271 340.801 310.036 340.322C312.786 338.459 313.775 334.189 314.061 332.426C314.419 330.234 314.692 328.772 314.864 327.841L295.095 316.764C295.029 316.729 294.955 316.709 294.88 316.707V316.707Z" fill="#E27623"/>
<path d="M338.772 362.661C337.808 362.658 336.847 362.547 335.907 362.332C332.534 361.579 329.457 359.848 327.062 357.355C324.667 354.863 323.06 351.719 322.441 348.318C322.241 346.469 322.212 342.228 322.327 335.421C322.338 334.546 322.567 333.687 322.992 332.922C323.417 332.156 324.025 331.509 324.762 331.036C325.315 330.693 325.948 330.499 326.598 330.474C327.249 330.449 327.894 330.593 328.472 330.893V330.893L351.22 343.331L350.862 344.764C350.862 344.764 350.561 346.054 349.817 350.496C349.344 353.362 347.997 358.377 344.087 360.999C342.521 362.072 340.67 362.651 338.772 362.661V362.661ZM326.796 334.375C326.645 334.508 326.524 334.671 326.44 334.854C326.356 335.036 326.311 335.235 326.309 335.436C326.166 343.675 326.309 346.77 326.395 347.902C326.923 350.482 328.186 352.855 330.031 354.734C331.876 356.613 334.225 357.918 336.795 358.492C337.661 358.745 338.571 358.812 339.465 358.689C340.358 358.566 341.216 358.254 341.981 357.775C344.731 355.912 345.72 351.642 346.006 349.88C346.364 347.702 346.636 346.254 346.808 345.309L326.796 334.375Z" fill="#E27623"/>
<path d="M350.031 345.996L348.098 342.586L376.748 325.935C379.098 324.595 381.878 324.225 384.497 324.904C385.523 325.272 386.456 325.861 387.231 326.628C388.005 327.396 388.603 328.323 388.981 329.346L385.357 330.879C385.189 330.372 384.913 329.907 384.546 329.519C384.18 329.13 383.733 328.826 383.237 328.629C381.695 328.318 380.094 328.573 378.724 329.346L350.031 345.996Z" fill="#E27623"/>
<path d="M295.439 316.492L293.462 313.082L322.112 296.431C324.462 295.09 327.243 294.72 329.862 295.399C330.888 295.768 331.821 296.357 332.595 297.124C333.37 297.891 333.967 298.819 334.346 299.841L330.721 301.375C330.554 300.869 330.28 300.406 329.916 300.018C329.552 299.629 329.109 299.325 328.616 299.125C327.065 298.805 325.451 299.06 324.074 299.841L295.439 316.492Z" fill="#E27623"/>
<path d="M318.051 325.162L316.169 328.624L326.688 334.349L328.571 330.888L318.051 325.162Z" fill="#E27623"/>
<path d="M300.08 239.5L305.466 236.878C305.466 236.878 305.896 232.149 304.034 231.146C302.172 230.143 300.08 239.5 300.08 239.5Z" fill="#196132"/>
<path d="M313.187 226.031C313.187 226.031 313.932 237.652 314.735 238.841C315.537 240.03 325.865 245.447 326.71 247.439C327.555 249.43 315.25 247.267 311.125 246.249C306.999 245.232 303.275 243.197 303.131 241.678C302.988 240.159 304.564 232.35 303.131 232.522C301.699 232.694 300.08 239.443 300.08 239.443L296.527 237.379L304.435 210.154" fill="#196132"/>
<path d="M324.562 227.922L329.948 225.3C329.948 225.3 330.377 220.571 328.515 219.568C326.653 218.565 324.562 227.922 324.562 227.922Z" fill="#196132"/>
<path d="M337.669 214.467C337.669 214.467 338.414 226.088 339.216 227.277C340.018 228.467 350.347 233.883 351.192 235.875C352.037 237.867 339.732 235.703 335.606 234.686C331.481 233.668 327.756 231.633 327.613 230.115C327.47 228.596 329.045 220.786 327.613 220.958C326.18 221.13 324.562 227.879 324.562 227.879L320.995 225.758L328.902 198.532" fill="#196132"/>
<path d="M297.616 127.287C295.725 129.106 291.299 154.412 294.25 166.564C297.201 178.715 326.71 183.759 326.71 183.759L319.777 214.725C319.777 214.725 331.079 223.322 341.88 219.769C345.777 218.508 354.658 174.043 351.22 167.853C347.782 161.663 308.245 140.226 308.245 140.226" fill="#FFF0D7"/>
<path d="M274.324 136.515C272.433 138.335 266.989 152.564 274.324 170.031C279.166 181.495 305.495 189.691 305.495 189.691L296.528 223.982C296.528 223.982 308.317 233.754 318.631 229.025C328.945 224.297 331.839 182.168 328.401 176.007C324.963 169.845 290.712 148.007 290.712 148.007" fill="#FFF0D7"/>
<path d="M283.635 102.482C283.635 102.482 264.11 110.593 269.568 138.306C273.407 157.794 292.717 159.943 292.717 159.943C292.717 159.943 305.366 151.976 303.948 149.311L286.758 140.355L306.226 130.511L320.278 145.256L330.306 137.432C330.306 137.432 315.809 114.677 309.506 105.277C303.203 95.8765 283.635 102.482 283.635 102.482Z" fill="#FF9A22"/>
<path d="M308.947 149.526L305.509 146.76C305.509 146.76 313.173 139.753 323.63 140.67C326.388 136.423 330.527 133.259 335.348 131.714L339.646 134.824" fill="#FFE8BC"/>
<path d="M305.509 146.76L302.787 166.664L308.933 170.031L313.775 151.847" fill="#FFE8BC"/>
<path d="M308.947 149.526L306.082 168.369L308.947 170.031C308.947 170.031 338.185 153.954 337.898 153.667C337.612 153.38 339.66 134.838 339.66 134.838" fill="#68E1FD"/>
<path d="M337.54 133.305L308.933 149.526L311.626 151.045L339.66 134.824L337.54 133.305Z" fill="#68E1FD"/>
<path opacity="0.42" d="M337.54 133.305L308.933 149.526L311.626 151.045L339.66 134.824L337.54 133.305Z" fill="#1371A5"/>
<path d="M312.614 152.148C312.683 151.884 312.682 151.607 312.611 151.344C312.539 151.082 312.4 150.842 312.208 150.649C312.015 150.456 311.776 150.318 311.513 150.246C311.25 150.175 310.973 150.173 310.709 150.242C308.482 151.064 306.121 151.463 303.747 151.417C303.493 151.409 303.241 151.468 303.017 151.589C300.786 153.831 298.312 155.816 295.639 157.507L296.442 157.88C297.503 159.96 298.719 161.957 300.08 163.855C300.39 164.294 300.799 164.653 301.275 164.903C301.751 165.152 302.279 165.284 302.816 165.288C303.17 165.555 303.543 165.795 303.934 166.005C304.494 166.316 305.134 166.452 305.772 166.396C306.411 166.34 307.018 166.094 307.515 165.689C307.885 165.923 308.332 166.005 308.761 165.919C309.04 166.063 309.355 166.123 309.667 166.092C309.98 166.062 310.277 165.942 310.523 165.747C311.226 165.333 311.74 164.662 311.957 163.876C312.173 163.089 312.075 162.249 311.683 161.534C312.182 160.962 312.466 160.235 312.487 159.477C312.508 158.719 312.264 157.977 311.798 157.378C311.153 156.451 310.353 155.642 309.434 154.985C310.176 154.856 310.867 154.522 311.429 154.02C311.991 153.519 312.401 152.871 312.614 152.148V152.148Z" fill="#FDBA45"/>
<path d="M340.734 145.542C340.906 145.284 341.064 145.012 341.221 144.754C341.341 144.574 341.417 144.369 341.446 144.154C341.475 143.94 341.455 143.722 341.387 143.517C341.32 143.311 341.206 143.124 341.056 142.968C340.906 142.813 340.722 142.693 340.52 142.619L340.305 142.418C340.456 142.07 340.475 141.679 340.359 141.318C340.243 140.957 340 140.65 339.674 140.455C339.452 140.343 339.207 140.285 338.958 140.285C338.709 140.285 338.464 140.343 338.242 140.455C338.106 140.489 337.976 140.542 337.855 140.613C336.756 141.309 335.916 142.346 335.463 143.565C335.372 143.894 335.394 144.245 335.523 144.561C335.653 144.877 335.883 145.142 336.179 145.313C336.349 145.402 336.533 145.46 336.723 145.485V145.485C336.177 146.198 335.733 146.984 335.406 147.821C335.004 148.91 336.122 149.87 337.11 149.769L336.881 150.085C336.021 151.202 337.44 152.707 338.629 152.363C339.051 152.222 339.44 151.996 339.77 151.697C340.1 151.399 340.365 151.035 340.548 150.629C341.05 149.712 341.537 148.795 341.981 147.864C342.095 147.632 342.152 147.377 342.147 147.12C342.142 146.862 342.076 146.609 341.955 146.382C341.833 146.155 341.658 145.961 341.446 145.814C341.234 145.668 340.99 145.575 340.734 145.542V145.542Z" fill="#FDBA45"/>
<path d="M306.913 123.432C306.913 123.432 307.386 141 306.34 142.92C305.294 144.84 286.744 152.721 286.744 152.721L275.284 138.249L306.913 123.432Z" fill="#FF9A22"/>
<path d="M297.473 93.3689C297.473 93.3689 300.739 100.534 299.478 103.056C298.218 105.578 291.342 103.858 291.342 103.858" fill="#1B6333"/>
<path d="M298.06 89.7292C298.06 89.7292 298.261 104.202 292.33 105.764C286.4 107.326 283.248 100.032 283.248 100.032C283.248 100.032 282.045 90.2594 283.964 88.2103C285.884 86.1612 294.923 85.6024 298.06 89.7292Z" fill="#FDBA45"/>
<path d="M300.352 88.1243C300.352 88.1243 296.356 93.8561 293.992 95.289C291.628 96.722 288.95 95.9052 288.119 97.8683C287.288 99.8314 290.253 111.467 287.531 113.631C284.81 115.794 279.509 109.518 277.174 112.599C274.839 115.68 276.1 121.354 272.433 122.63C268.766 123.905 264.44 118.202 267.935 113.674C271.43 109.146 271.774 106.924 269.768 105.434C266.775 103.213 269.869 95.0311 273.364 93.4835C276.859 91.9359 277.805 83.9974 284.093 82.02C290.382 80.0425 298.991 83.6392 300.352 88.1243Z" fill="#1B6333"/>
<path d="M305.509 117.858C305.509 125.959 305.352 134.079 305.037 142.218C305.037 143.135 306.469 143.135 306.469 142.218C306.803 134.117 306.961 125.997 306.942 117.858C306.942 117.668 306.866 117.486 306.732 117.351C306.598 117.217 306.415 117.141 306.226 117.141C306.036 117.141 305.853 117.217 305.719 117.351C305.585 117.486 305.509 117.668 305.509 117.858Z" fill="#F26250"/>
<path d="M303.69 148.752C299.078 146.65 295.02 143.502 291.837 139.557C288.654 135.612 286.434 130.979 285.354 126.026C285.153 125.123 283.778 125.51 283.922 126.412C285.051 131.551 287.358 136.356 290.662 140.449C293.966 144.543 298.176 147.812 302.959 149.999C303.848 150.371 304.578 149.139 303.69 148.752Z" fill="#F26250"/>
<defs>
<linearGradient id="paint0_linear_15_14" x1="280.355" y1="377.521" x2="336.438" y2="326.913" gradientUnits="userSpaceOnUse">
<stop stop-color="#DAF2E9"/>
<stop offset="1" stop-color="#C4E0D1"/>
</linearGradient>
<linearGradient id="paint1_linear_15_14" x1="32839.6" y1="17462" x2="33871.7" y2="15310.5" gradientUnits="userSpaceOnUse">
<stop stop-color="#DAF2E9"/>
<stop offset="1" stop-color="#C4E0D1"/>
</linearGradient>
<linearGradient id="paint2_linear_15_14" x1="20201.2" y1="27207.9" x2="21799.4" y2="23460.9" gradientUnits="userSpaceOnUse">
<stop stop-color="#DAF2E9"/>
<stop offset="1" stop-color="#C4E0D1"/>
</linearGradient>
</defs>
</svg>
