<svg width="1200" height="378" viewBox="0 0 1200 378" fill="none" xmlns="http://www.w3.org/2000/svg">
<g clip-path="url(#clip0_41_4)">
<path d="M1086.04 204.024C1123.68 235.871 1066.76 300.124 1107.07 328.519C1142.12 353.214 1173.07 325.833 1200.06 288.138L1200 0L-8.35595e-05 0.248856L0.0549253 265.505C19.9189 236.545 29.8211 198.725 66.0422 204.235C119.914 212.431 74.6474 325.896 129.068 328.722C167.588 330.722 171.606 269.233 210.056 272.205C257.788 275.894 233.464 356.827 278.077 374.191C342.745 399.36 370.249 227.734 423.556 272.161C443.036 288.396 437.751 310.611 455.568 328.654C523.964 397.922 546.943 109.638 633.532 154.117C692.975 184.652 637.796 283.734 698.065 312.604C781.092 352.376 794.101 105.862 872.532 154.068C922.085 184.525 874.084 266.949 926.061 293.057C989.953 325.151 1031.46 157.843 1086.04 204.024Z" fill="white"/>
</g>
<defs>
<clipPath id="clip0_41_4">
<rect width="1200" height="377" fill="white" transform="translate(1200.08 377) rotate(179.988)"/>
</clipPath>
</defs>
</svg>
